# xmcd
#
# Track frame offsets:
#	150
#	19282
#	39750
#	62075
#	84055
#	102695
#	121575
#	144432
#	161742
#	178397
#
# Disc length: 2603 seconds
#
# Revision: 2
# Processed by: cddbd v1.5.2PL0 Copyright (c) Steve Scherf et al.
# Submitted via: EasyCDDAExtractor 15.3.0.1
#
DISCID=7d0a290a
DTITLE=Rey Ruiz - Mi Tentacion
DYEAR=2004
DGENRE=Latin
TTITLE0=El Diablo Anda Suelto
TTITLE1=Creo En El Amor
TTITLE2=De Ti No Me Canso
TTITLE3=Mi Tentacion
TTITLE4=Ella Sabe
TTITLE5=Una Cancion Para Olvidar
TTITLE6=Te Vas A Arrepentir
TTITLE7=Fuiste Mia (Bolero)
TTITLE8=Mi Tentacion (Pop)
TTITLE9=Creo En El Amor (Balada)
EXTD=
EXTT0=
EXTT1=
EXTT2=
EXTT3=
EXTT4=
EXTT5=
EXTT6=
EXTT7=
EXTT8=
EXTT9=
PLAYORDER=
